<?xml version="1.0" encoding="utf-8"?>
<!-- Generator: Adobe Illustrator 23.0.1, SVG Export Plug-In . SVG Version: 6.00 Build 0)  -->
<svg version="1.1" id="Layer_1" xmlns="http://www.w3.org/2000/svg" xmlns:xlink="http://www.w3.org/1999/xlink" x="0px" y="0px"
	 viewBox="0 0 458 210" style="enable-background:new 0 0 458 210;" xml:space="preserve">
<style type="text/css">
	.st0{fill:#A65A2A;}
	.st1{fill:#502C1E;}
	.st2{clip-path:url(#SVGID_3_);}
	.st3{fill:#FF9E18;}
	.st4{fill:#EF5423;}
	.st5{fill:#FF5100;}
</style>
<polyline class="st0" points="86.4,87.6 32.1,141.9 6.2,116 34.6,87.6 86.4,87.6 "/>
<polyline class="st1" points="89.1,147 89.1,198.8 32.1,141.9 58.1,115.9 89.1,147 "/>
<g>
	<defs>
		<rect id="SVGID_1_" x="25.4" y="110.6" width="68.3" height="93.6"/>
	</defs>
	<defs>
		<polyline id="SVGID_2_" points="89.1,198.8 32.1,141.9 58.1,115.9 89.1,147 89.1,198.8 		"/>
	</defs>
	<clipPath id="SVGID_3_">
		<use xlink:href="#SVGID_1_"  style="overflow:visible;"/>
	</clipPath>
	<clipPath id="SVGID_4_" class="st2">
		<use xlink:href="#SVGID_2_"  style="overflow:visible;"/>
	</clipPath>
	<g transform="matrix(1 0 0 1 0 0)" style="clip-path:url(#SVGID_4_);">
		
			<image style="overflow:visible;" width="21" height="29" xlink:href="496D285E.jpg"  transform="matrix(3.3274 0 0 3.282 25.1449 110.0224)">
		</image>
	</g>
</g>
<polygon class="st3" points="172,89.9 146.1,115.9 89.1,58.9 89.1,7 172,89.9 "/>
<polygon class="st4" points="146.1,115.9 94.3,115.8 120.1,89.9 146.1,115.9 "/>
<path class="st1" d="M144.7,152.6l0.6-1.4l1.5-0.6h30.4c1.9,0,3.8,0.4,5.5,1.1c1.8,0.7,3.3,1.7,4.6,3c1.3,1.3,2.4,2.8,3.2,4.5
	c0.8,1.7,1.2,3.6,1.2,5.6c0,1.9-0.4,3.7-1.3,5.5c-0.8,1.7-1.9,3.3-3.3,4.6c2,1.4,3.6,3.1,4.8,5.2c1.2,2.1,1.8,4.4,1.8,6.9
	c0,2.1-0.4,4-1.2,5.8c-0.8,1.8-1.8,3.3-3.2,4.6c-1.3,1.3-2.9,2.3-4.6,3.1c-1.7,0.8-3.6,1.1-5.6,1.1h-32.3l-1.4-0.6l-0.6-1.4V152.6
	L144.7,152.6z M153.4,158.1v35.8h24.1c2.6,0,4.6-0.8,6.2-2.3c1.6-1.6,2.3-3.4,2.3-5.5c0-2.2-0.8-4-2.3-5.5c-1.6-1.5-3.6-2.3-6.2-2.3
	h-15.7l-1.4-0.6l-0.6-1.4v-2.8c0-0.6,0.2-1.1,0.6-1.5l1.4-0.5h14.9c2.3,0,4.1-0.7,5.3-2c1.2-1.3,1.8-2.9,1.8-4.7
	c0-1.8-0.7-3.4-2-4.7c-1.3-1.3-3-1.9-5.1-1.9H153.4L153.4,158.1z"/>
<path class="st1" d="M231,152.6c0.2-0.6,0.7-1,1.3-1.4c0.6-0.4,1.2-0.6,1.7-0.6h4.3c0.6,0,1.1,0.2,1.7,0.6c0.6,0.4,1.1,0.9,1.4,1.4
	l24.8,46.8l0.3,1c0,0.7-0.4,1.1-1.2,1.1h-5.5c-0.9,0-1.6-0.5-2.2-1.4l-5.6-10.6h-23.4c-0.8,0-1.2-0.4-1.2-1.1l0.2-1l1.9-3.7
	c0.5-1,1.3-1.4,2.2-1.4h16.4L236,158.6L214.9,200l-0.9,1l-1.3,0.4h-5.2c-0.8,0-1.2-0.4-1.2-1.1l0.2-1L231,152.6L231,152.6z"/>
<path class="st1" d="M281,152.6l0.6-1.4l1.5-0.6h41.5c0.6,0,1.1,0.2,1.5,0.6l0.5,1.4v3.5l-0.5,1.4c-0.4,0.4-0.9,0.6-1.5,0.6h-34.9
	v41.3l-0.6,1.4l-1.5,0.6h-4.5l-1.5-0.6l-0.6-1.4V152.6L281,152.6z"/>
<path class="st3" d="M295.8,175.8l0.5-1.5c0.4-0.4,0.9-0.6,1.5-0.6H321l1.4,0.6l0.6,1.5v3.4l-0.6,1.5l-1.4,0.6h-23.2
	c-0.6,0-1.1-0.2-1.5-0.6l-0.5-1.5V175.8L295.8,175.8z"/>
<path class="st1" d="M339.7,152.6l0.6-1.4l1.5-0.6h41.5c0.6,0,1.1,0.2,1.5,0.6l0.5,1.4v3.5l-0.5,1.4c-0.4,0.4-0.9,0.6-1.5,0.6h-34.9
	v41.3l-0.6,1.4l-1.5,0.6h-4.5l-1.5-0.6l-0.6-1.4V152.6L339.7,152.6z"/>
<path class="st1" d="M354.5,175.8l0.5-1.5c0.4-0.4,0.9-0.6,1.5-0.6h23.2l1.5,0.6l0.6,1.5v3.4l-0.6,1.5l-1.5,0.6h-23.2
	c-0.6,0-1.1-0.2-1.5-0.6l-0.5-1.5V175.8L354.5,175.8z"/>
<path class="st1" d="M414,152.6c0.2-0.6,0.7-1,1.3-1.4c0.6-0.4,1.2-0.6,1.7-0.6h4.3c0.6,0,1.1,0.2,1.7,0.6c0.6,0.4,1.1,0.9,1.4,1.4
	l24.8,46.8l0.2,1c0,0.7-0.4,1.1-1.2,1.1h-5.5c-0.9,0-1.6-0.5-2.2-1.4l-5.6-10.6h-23.4c-0.8,0-1.2-0.4-1.2-1.1l0.2-1l1.9-3.7
	c0.6-1,1.3-1.4,2.2-1.4h16.4l-12.1-23.6L397.9,200l-0.9,1l-1.3,0.4h-5.2c-0.8,0-1.2-0.4-1.2-1.1l0.3-1L414,152.6L414,152.6z"/>
<polygon class="st5" points="146.1,115.9 94.3,115.8 120.1,89.9 146.1,115.9 "/>
</svg>
